<svg width="50" height="50" xmlns="http://www.w3.org/2000/svg">
 <g>
  <title>Layer 1</title>
  <rect fill="none" height="50" width="50" id="svg_1"/>
  <path d="m14.748,30.216999c0,0 2.318,4.049 2.874999,5.109001c0.559,1.056999 0.700001,2.152 0.294001,2.817001c-0.615999,1.007 -6.241,9.462997 -6.738999,10.174999c-0.499001,0.711998 -1.924001,1.055 -3.320001,0.076c-1.397,-0.974003 -6.917,-5.472 -6.858,-7.378002c0.062,-1.909 0.236,-9.845999 15.207001,-24.813c14.966999,-14.964999 22.905998,-15.141999 24.813999,-15.202999s6.408001,5.459 7.383999,6.855c0.975002,1.398 0.608002,2.825 -0.077999,3.321c-0.780998,0.564 -9.209999,6.124 -10.176998,6.736001c-0.659,0.418999 -1.760002,0.264999 -2.818001,-0.294001c-1.061001,-0.556 -5.109001,-2.874 -5.109001,-2.874s-2.786999,1.634 -8.312,7.159999c-5.525999,5.527 -7.162999,8.313 -7.162999,8.313z" fill="#EC1C24" stroke="#EC1C24" stroke-miterlimit="10" stroke-width="2" id="svg_2"/>
 </g>
</svg>
